Coordinates
version=1
nRows=9
nColumns=36
inDegrees=yes

Units are S.I. units (second, meters, Newtons, ...)
If the header above contains a line with 'inDegrees', this indicates whether rotational values are in degrees (yes) or radians (no).

endheader
time	pelvis_tilt	pelvis_list	pelvis_rotation	pelvis_tx	pelvis_ty	pelvis_tz	hip_flexion_r	hip_adduction_r	hip_rotation_r	knee_angle_r	knee_angle_r_beta	ankle_angle_r	subtalar_angle_r	mtp_angle_r	hip_flexion_l	hip_adduction_l	hip_rotation_l	knee_angle_l	knee_angle_l_beta	ankle_angle_l	subtalar_angle_l	mtp_angle_l	lumbar_extension	lumbar_bending	lumbar_rotation	arm_flex_r	arm_add_r	arm_rot_r	elbow_flex_r	pro_sup_r	arm_flex_l	arm_add_l	arm_rot_l	elbow_flex_l	pro_sup_l
      2.21666670	    -17.10156095	      1.32721266	     -8.91984884	      0.93662118	      0.73500270	      0.35711148	     59.39000691	      8.94753508	     -4.28511428	     78.34622521	      1.36739959	     36.48203622	     -1.76545281	     -7.49999909	     87.76713567	     -5.43343694	     16.19254847	     50.96239094	      0.88946152	      2.41502131	     -4.32689835	     -7.49999909	    -22.59633378	     16.25636065	     -0.67338391	     58.57690803	     -4.80531988	     49.66026006	    109.79460066	    103.27863639	     60.52004317	     -3.12703404	     65.94146910	    119.49592956	    110.20091146
      2.23333330	    -17.03715167	      1.18701412	     -9.03476044	      0.93702114	      0.73461312	      0.35674106	     59.31708841	      9.11783724	     -4.40919162	     78.37345094	      1.36787477	     36.69538189	     -1.74371407	     -7.49999916	     87.76270818	     -5.74266105	     16.29349124	     50.48825875	      0.88118635	      2.29400642	     -4.34099812	     -7.49999916	    -22.68138734	     16.35100849	     -0.62698647	     58.07008893	     -4.72771028	     49.42922052	    109.90858593	    103.57466906	     59.44382267	     -2.99287834	     65.20461596	    119.43915907	    109.91818475
      2.25000000	    -17.04108105	      1.11838391	     -9.13067529	      0.94071474	      0.73534042	      0.35473699	     59.27369288	      9.08853975	     -4.53293185	     78.37237474	      1.36785598	     36.86021575	     -1.81038257	     -7.49999916	     87.81344674	     -5.98055054	     16.23681508	     50.06516532	      0.87380198	      2.34623670	     -4.34645377	     -7.49999916	    -22.72819163	     16.43087304	     -0.64047837	     58.13432019	     -4.70176603	     49.29328479	    109.96636206	    103.58717552	     59.16473078	     -3.04874295	     65.19129239	    119.41961462	    109.90531049
      2.26666670	    -17.08870138	      1.08427977	     -9.19969114	      0.94096918	      0.73501254	      0.35439819	     59.27866220	      8.88870810	     -4.76346209	     78.30333588	      1.36665103	     37.10667763	     -1.72786042	     -7.49999926	     87.78965391	     -6.12457478	     16.25067484	     49.41520317	      0.86245800	      2.10200012	     -4.34113023	     -7.49999926	    -22.32484952	     16.79107268	     -1.00686583	     57.57815394	     -4.29822386	     49.40144990	    110.34939719	    103.43120502	     57.61572415	     -3.22846356	     63.80334765	    120.36783142	    110.14026563
      2.28333330	    -17.14200149	      1.01395816	     -9.25968679	      0.94035281	      0.73693339	      0.35459523	     59.47754437	      8.71773931	     -5.05709249	     78.36288865	      1.36769042	     36.89825191	     -1.88756361	     -7.49999938	     87.65686740	     -6.26430966	     16.35679203	     48.66796599	      0.84941625	      1.92569681	     -4.25697368	     -7.49999938	    -21.90288797	     17.13740530	     -1.06778357	     57.15527008	     -4.24575274	     51.71739305	    111.39685424	    103.00754696	     57.05112368	     -3.11582536	     63.04474501	    120.83615836	    109.98964474
      2.30000000	    -17.11083363	      1.18764476	     -9.15577165	      0.93667745	      0.73596289	      0.35694782	     59.59049270	      8.40933322	     -5.10789522	     78.48367412	      1.36979852	     36.71953710	     -1.75568175	     -7.49999939	     87.66170588	     -6.20291324	     16.37945932	     48.26402379	      0.84236613	      1.45501327	     -4.27334940	     -7.49999939	    -21.20084964	     16.88257114	     -0.92492192	     55.88247420	     -4.60377489	     58.65744260	    115.44703405	    103.42921943	     56.92284963	     -2.92292884	     62.84112988	    121.17640312	    109.72739771
      2.31666670	    -16.87450273	      1.01518009	     -9.08700616	      0.93638549	      0.73851818	      0.35686202	     59.10372794	      8.37035479	     -5.29610210	     78.08709836	      1.36287697	     36.66437007	     -1.47984877	     -7.49999947	     87.53384670	     -6.24611328	     16.61357321	     48.06814687	      0.83894743	      1.16520351	     -4.49678068	     -7.49999947	    -20.94653676	     17.37141179	     -0.71499430	     56.80654240	     -4.60507331	     68.44538809	    117.33018184	    102.44401853	     57.26053865	     -2.85198635	     61.96850999	    121.51182130	    107.83152097
      2.33333330	    -16.67560220	      1.06320624	     -9.01268593	      0.93706408	      0.73855853	      0.35656611	     58.88847710	      8.09766759	     -5.41578183	     78.01577867	      1.36163221	     36.87516851	     -1.16971798	     -7.49999961	     87.53803568	     -6.27219848	     16.50709213	     48.02441968	      0.83818424	      0.98804928	     -4.32335900	     -7.49999961	    -20.42130212	     17.32528328	     -0.46642463	     57.58232574	     -4.08137883	     74.60448736	    118.35085596	    102.36841173	     57.83909031	     -2.41895285	     62.09370523	    121.31137674	    110.07454117
      2.35000000	    -16.41524461	      0.94175360	     -8.87747952	      0.93680369	      0.74135240	      0.36155531	     58.49407827	      8.06472058	     -5.63437955	     77.76715195	      1.35729285	     36.87873148	     -0.95172530	     -7.49999962	     87.37678408	     -6.35054064	     16.63757598	     47.90428034	      0.83608742	      0.77354629	     -4.18655241	     -7.49999962	    -19.91698830	     17.13965319	     -0.16345525	     57.93124734	     -3.85911653	     76.60399373	    118.47714676	    102.60650159	     58.74845396	     -2.51151348	     62.58817154	    120.63019781	    110.12164670
